<mxfile host="app.diagrams.net" agent="Mozilla/5.0 (Macintosh; Intel Mac OS X 10_15_7) AppleWebKit/537.36 (KHTML, like Gecko) Chrome/129.0.0.0 Safari/537.36" version="27.2.0">
  <diagram name="AI业务全景架构图" id="EYkGowaYEzDBcUyDAu71">
    <mxGraphModel dx="1426" dy="1966" grid="0" gridSize="10" guides="1" tooltips="1" connect="1" arrows="1" fold="1" page="1" pageScale="1" pageWidth="827" pageHeight="1169" background="none" math="0" shadow="0">
      <root>
        <mxCell id="0" />
        <mxCell id="1" parent="0" />
        <mxCell id="FgPwuLy-kUzGSYhEtQgn-1" value="接入层 (Access Layer)" style="swimlane;whiteSpace=wrap;html=1;fillColor=#e3f2fd;strokeColor=#1976d2;fontSize=16;fontStyle=1;startSize=40;rounded=1;" vertex="1" parent="1">
          <mxGeometry x="40" y="40" width="1320" height="120" as="geometry" />
        </mxCell>
        <mxCell id="FgPwuLy-kUzGSYhEtQgn-2" value="API网关" style="rounded=1;whiteSpace=wrap;html=1;fillColor=#bbdefb;strokeColor=#1976d2;fontSize=13;" vertex="1" parent="FgPwuLy-kUzGSYhEtQgn-1">
          <mxGeometry x="20" y="60" width="100" height="40" as="geometry" />
        </mxCell>
        <mxCell id="FgPwuLy-kUzGSYhEtQgn-3" value="负载均衡" style="rounded=1;whiteSpace=wrap;html=1;fillColor=#bbdefb;strokeColor=#1976d2;fontSize=13;" vertex="1" parent="FgPwuLy-kUzGSYhEtQgn-1">
          <mxGeometry x="140" y="60" width="100" height="40" as="geometry" />
        </mxCell>
        <mxCell id="FgPwuLy-kUzGSYhEtQgn-4" value="Web门户" style="rounded=1;whiteSpace=wrap;html=1;fillColor=#bbdefb;strokeColor=#1976d2;fontSize=13;" vertex="1" parent="FgPwuLy-kUzGSYhEtQgn-1">
          <mxGeometry x="260" y="60" width="100" height="40" as="geometry" />
        </mxCell>
        <mxCell id="FgPwuLy-kUzGSYhEtQgn-5" value="移动应用" style="rounded=1;whiteSpace=wrap;html=1;fillColor=#bbdefb;strokeColor=#1976d2;fontSize=13;" vertex="1" parent="FgPwuLy-kUzGSYhEtQgn-1">
          <mxGeometry x="380" y="60" width="100" height="40" as="geometry" />
        </mxCell>
        <mxCell id="FgPwuLy-kUzGSYhEtQgn-6" value="应用层 (Application Layer)" style="swimlane;whiteSpace=wrap;html=1;fillColor=#fff9c4;strokeColor=#fbc02d;fontSize=16;fontStyle=1;startSize=40;rounded=1;" vertex="1" parent="1">
          <mxGeometry x="40" y="180" width="1320" height="200" as="geometry" />
        </mxCell>
        <mxCell id="FgPwuLy-kUzGSYhEtQgn-7" value="智能应用建设" style="rounded=1;whiteSpace=wrap;html=1;fillColor=#d1c4e9;strokeColor=#7e57c2;fontSize=14;fontStyle=1;" vertex="1" parent="FgPwuLy-kUzGSYhEtQgn-6">
          <mxGeometry x="20" y="60" width="200" height="120" as="geometry" />
        </mxCell>
        <mxCell id="FgPwuLy-kUzGSYhEtQgn-8" value="AI助手" style="rounded=1;whiteSpace=wrap;html=1;fillColor=#fff59d;strokeColor=#fbc02d;fontSize=12;" vertex="1" parent="FgPwuLy-kUzGSYhEtQgn-7">
          <mxGeometry x="10" y="30" width="80" height="30" as="geometry" />
        </mxCell>
        <mxCell id="FgPwuLy-kUzGSYhEtQgn-9" value="内容生成" style="rounded=1;whiteSpace=wrap;html=1;fillColor=#fff59d;strokeColor=#fbc02d;fontSize=12;" vertex="1" parent="FgPwuLy-kUzGSYhEtQgn-7">
          <mxGeometry x="100" y="30" width="80" height="30" as="geometry" />
        </mxCell>
        <mxCell id="FgPwuLy-kUzGSYhEtQgn-10" value="智能搜索" style="rounded=1;whiteSpace=wrap;html=1;fillColor=#fff59d;strokeColor=#fbc02d;fontSize=12;" vertex="1" parent="FgPwuLy-kUzGSYhEtQgn-7">
          <mxGeometry x="10" y="70" width="80" height="30" as="geometry" />
        </mxCell>
        <mxCell id="FgPwuLy-kUzGSYhEtQgn-11" value="智能推荐" style="rounded=1;whiteSpace=wrap;html=1;fillColor=#fff59d;strokeColor=#fbc02d;fontSize=12;" vertex="1" parent="FgPwuLy-kUzGSYhEtQgn-7">
          <mxGeometry x="100" y="70" width="80" height="30" as="geometry" />
        </mxCell>
        <mxCell id="FgPwuLy-kUzGSYhEtQgn-12" value="基础能力建设" style="rounded=1;whiteSpace=wrap;html=1;fillColor=#d1c4e9;strokeColor=#7e57c2;fontSize=14;fontStyle=1;" vertex="1" parent="FgPwuLy-kUzGSYhEtQgn-6">
          <mxGeometry x="240" y="60" width="200" height="120" as="geometry" />
        </mxCell>
        <mxCell id="FgPwuLy-kUzGSYhEtQgn-13" value="Prompt工程" style="rounded=1;whiteSpace=wrap;html=1;fillColor=#fff59d;strokeColor=#fbc02d;fontSize=12;" vertex="1" parent="FgPwuLy-kUzGSYhEtQgn-12">
          <mxGeometry x="10" y="30" width="80" height="30" as="geometry" />
        </mxCell>
        <mxCell id="FgPwuLy-kUzGSYhEtQgn-14" value="模型微调" style="rounded=1;whiteSpace=wrap;html=1;fillColor=#fff59d;strokeColor=#fbc02d;fontSize=12;" vertex="1" parent="FgPwuLy-kUzGSYhEtQgn-12">
          <mxGeometry x="100" y="30" width="80" height="30" as="geometry" />
        </mxCell>
        <mxCell id="FgPwuLy-kUzGSYhEtQgn-15" value="知识图谱" style="rounded=1;whiteSpace=wrap;html=1;fillColor=#fff59d;strokeColor=#fbc02d;fontSize=12;" vertex="1" parent="FgPwuLy-kUzGSYhEtQgn-12">
          <mxGeometry x="10" y="70" width="80" height="30" as="geometry" />
        </mxCell>
        <mxCell id="FgPwuLy-kUzGSYhEtQgn-16" value="向量数据库" style="rounded=1;whiteSpace=wrap;html=1;fillColor=#fff59d;strokeColor=#fbc02d;fontSize=12;" vertex="1" parent="FgPwuLy-kUzGSYhEtQgn-12">
          <mxGeometry x="100" y="70" width="80" height="30" as="geometry" />
        </mxCell>
        <mxCell id="FgPwuLy-kUzGSYhEtQgn-17" value="系统应用建设" style="rounded=1;whiteSpace=wrap;html=1;fillColor=#d1c4e9;strokeColor=#7e57c2;fontSize=14;fontStyle=1;" vertex="1" parent="FgPwuLy-kUzGSYhEtQgn-6">
          <mxGeometry x="460" y="60" width="200" height="120" as="geometry" />
        </mxCell>
        <mxCell id="FgPwuLy-kUzGSYhEtQgn-18" value="Agent编排" style="rounded=1;whiteSpace=wrap;html=1;fillColor=#fff59d;strokeColor=#fbc02d;fontSize=12;" vertex="1" parent="FgPwuLy-kUzGSYhEtQgn-17">
          <mxGeometry x="10" y="30" width="80" height="30" as="geometry" />
        </mxCell>
        <mxCell id="FgPwuLy-kUzGSYhEtQgn-19" value="工作流引擎" style="rounded=1;whiteSpace=wrap;html=1;fillColor=#fff59d;strokeColor=#fbc02d;fontSize=12;" vertex="1" parent="FgPwuLy-kUzGSYhEtQgn-17">
          <mxGeometry x="100" y="30" width="80" height="30" as="geometry" />
        </mxCell>
        <mxCell id="FgPwuLy-kUzGSYhEtQgn-20" value="API网关" style="rounded=1;whiteSpace=wrap;html=1;fillColor=#fff59d;strokeColor=#fbc02d;fontSize=12;" vertex="1" parent="FgPwuLy-kUzGSYhEtQgn-17">
          <mxGeometry x="10" y="70" width="80" height="30" as="geometry" />
        </mxCell>
        <mxCell id="FgPwuLy-kUzGSYhEtQgn-21" value="监控告警" style="rounded=1;whiteSpace=wrap;html=1;fillColor=#fff59d;strokeColor=#fbc02d;fontSize=12;" vertex="1" parent="FgPwuLy-kUzGSYhEtQgn-17">
          <mxGeometry x="100" y="70" width="80" height="30" as="geometry" />
        </mxCell>
        <mxCell id="FgPwuLy-kUzGSYhEtQgn-22" value="开发管理" style="rounded=1;whiteSpace=wrap;html=1;fillColor=#d1c4e9;strokeColor=#7e57c2;fontSize=14;fontStyle=1;" vertex="1" parent="FgPwuLy-kUzGSYhEtQgn-6">
          <mxGeometry x="680" y="60" width="200" height="120" as="geometry" />
        </mxCell>
        <mxCell id="FgPwuLy-kUzGSYhEtQgn-23" value="版本控制" style="rounded=1;whiteSpace=wrap;html=1;fillColor=#fff59d;strokeColor=#fbc02d;fontSize=12;" vertex="1" parent="FgPwuLy-kUzGSYhEtQgn-22">
          <mxGeometry x="10" y="30" width="80" height="30" as="geometry" />
        </mxCell>
        <mxCell id="FgPwuLy-kUzGSYhEtQgn-24" value="n&#39;m" style="rounded=1;whiteSpace=wrap;html=1;fillColor=#fff59d;strokeColor=#fbc02d;fontSize=12;" vertex="1" parent="FgPwuLy-kUzGSYhEtQgn-22">
          <mxGeometry x="100" y="30" width="80" height="30" as="geometry" />
        </mxCell>
        <mxCell id="FgPwuLy-kUzGSYhEtQgn-25" value="测试框架" style="rounded=1;whiteSpace=wrap;html=1;fillColor=#fff59d;strokeColor=#fbc02d;fontSize=12;" vertex="1" parent="FgPwuLy-kUzGSYhEtQgn-22">
          <mxGeometry x="10" y="70" width="80" height="30" as="geometry" />
        </mxCell>
        <mxCell id="FgPwuLy-kUzGSYhEtQgn-26" value="部署管理" style="rounded=1;whiteSpace=wrap;html=1;fillColor=#fff59d;strokeColor=#fbc02d;fontSize=12;" vertex="1" parent="FgPwuLy-kUzGSYhEtQgn-22">
          <mxGeometry x="100" y="70" width="80" height="30" as="geometry" />
        </mxCell>
        <mxCell id="FgPwuLy-kUzGSYhEtQgn-27" value="大模型管理" style="rounded=1;whiteSpace=wrap;html=1;fillColor=#d1c4e9;strokeColor=#7e57c2;fontSize=14;fontStyle=1;" vertex="1" parent="FgPwuLy-kUzGSYhEtQgn-6">
          <mxGeometry x="900" y="60" width="200" height="120" as="geometry" />
        </mxCell>
        <mxCell id="FgPwuLy-kUzGSYhEtQgn-28" value="模型训练" style="rounded=1;whiteSpace=wrap;html=1;fillColor=#fff59d;strokeColor=#fbc02d;fontSize=12;" vertex="1" parent="FgPwuLy-kUzGSYhEtQgn-27">
          <mxGeometry x="10" y="30" width="80" height="30" as="geometry" />
        </mxCell>
        <mxCell id="FgPwuLy-kUzGSYhEtQgn-29" value="模型服务" style="rounded=1;whiteSpace=wrap;html=1;fillColor=#fff59d;strokeColor=#fbc02d;fontSize=12;" vertex="1" parent="FgPwuLy-kUzGSYhEtQgn-27">
          <mxGeometry x="100" y="30" width="80" height="30" as="geometry" />
        </mxCell>
        <mxCell id="FgPwuLy-kUzGSYhEtQgn-30" value="模型评估" style="rounded=1;whiteSpace=wrap;html=1;fillColor=#fff59d;strokeColor=#fbc02d;fontSize=12;" vertex="1" parent="FgPwuLy-kUzGSYhEtQgn-27">
          <mxGeometry x="10" y="70" width="80" height="30" as="geometry" />
        </mxCell>
        <mxCell id="FgPwuLy-kUzGSYhEtQgn-31" value="模型优化" style="rounded=1;whiteSpace=wrap;html=1;fillColor=#fff59d;strokeColor=#fbc02d;fontSize=12;" vertex="1" parent="FgPwuLy-kUzGSYhEtQgn-27">
          <mxGeometry x="100" y="70" width="80" height="30" as="geometry" />
        </mxCell>
        <mxCell id="FgPwuLy-kUzGSYhEtQgn-32" value="领域层 (Domain Layer)" style="swimlane;whiteSpace=wrap;html=1;fillColor=#ede7f6;strokeColor=#7e57c2;fontSize=16;fontStyle=1;startSize=40;rounded=1;" vertex="1" parent="1">
          <mxGeometry x="40" y="400" width="1320" height="240" as="geometry" />
        </mxCell>
        <mxCell id="FgPwuLy-kUzGSYhEtQgn-33" value="AI业务全景" style="rounded=1;whiteSpace=wrap;html=1;fillColor=default;strokeColor=#4a148c;fontSize=16;fontStyle=1;fontColor=white;gradientColor=none;" vertex="1" parent="FgPwuLy-kUzGSYhEtQgn-32">
          <mxGeometry x="580" y="80" width="160" height="80" as="geometry" />
        </mxCell>
        <mxCell id="FgPwuLy-kUzGSYhEtQgn-34" value="系统应用建设" style="rounded=1;whiteSpace=wrap;html=1;fillColor=#d1c4e9;strokeColor=#7e57c2;fontSize=14;fontStyle=1;" vertex="1" parent="FgPwuLy-kUzGSYhEtQgn-32">
          <mxGeometry x="20" y="60" width="200" height="120" as="geometry" />
        </mxCell>
        <mxCell id="FgPwuLy-kUzGSYhEtQgn-35" value="小语言Agent" style="rounded=1;whiteSpace=wrap;html=1;fillColor=#ede7f6;strokeColor=#7e57c2;fontSize=12;" vertex="1" parent="FgPwuLy-kUzGSYhEtQgn-34">
          <mxGeometry x="10" y="30" width="80" height="25" as="geometry" />
        </mxCell>
        <mxCell id="FgPwuLy-kUzGSYhEtQgn-36" value="FastAPI" style="rounded=1;whiteSpace=wrap;html=1;fillColor=#ede7f6;strokeColor=#7e57c2;fontSize=12;" vertex="1" parent="FgPwuLy-kUzGSYhEtQgn-34">
          <mxGeometry x="100" y="30" width="80" height="25" as="geometry" />
        </mxCell>
        <mxCell id="FgPwuLy-kUzGSYhEtQgn-37" value="trace全链路" style="rounded=1;whiteSpace=wrap;html=1;fillColor=#ede7f6;strokeColor=#7e57c2;fontSize=12;" vertex="1" parent="FgPwuLy-kUzGSYhEtQgn-34">
          <mxGeometry x="10" y="65" width="80" height="25" as="geometry" />
        </mxCell>
        <mxCell id="FgPwuLy-kUzGSYhEtQgn-38" value="webhook" style="rounded=1;whiteSpace=wrap;html=1;fillColor=#ede7f6;strokeColor=#7e57c2;fontSize=12;" vertex="1" parent="FgPwuLy-kUzGSYhEtQgn-34">
          <mxGeometry x="100" y="65" width="80" height="25" as="geometry" />
        </mxCell>
        <mxCell id="FgPwuLy-kUzGSYhEtQgn-39" value="基础能力建设" style="rounded=1;whiteSpace=wrap;html=1;fillColor=#d1c4e9;strokeColor=#7e57c2;fontSize=14;fontStyle=1;" vertex="1" parent="FgPwuLy-kUzGSYhEtQgn-32">
          <mxGeometry x="1100" y="60" width="200" height="120" as="geometry" />
        </mxCell>
        <mxCell id="FgPwuLy-kUzGSYhEtQgn-40" value="python开发" style="rounded=1;whiteSpace=wrap;html=1;fillColor=#ede7f6;strokeColor=#7e57c2;fontSize=12;" vertex="1" parent="FgPwuLy-kUzGSYhEtQgn-39">
          <mxGeometry x="10" y="30" width="80" height="25" as="geometry" />
        </mxCell>
        <mxCell id="FgPwuLy-kUzGSYhEtQgn-41" value="AI能力" style="rounded=1;whiteSpace=wrap;html=1;fillColor=#ede7f6;strokeColor=#7e57c2;fontSize=12;" vertex="1" parent="FgPwuLy-kUzGSYhEtQgn-39">
          <mxGeometry x="100" y="30" width="80" height="25" as="geometry" />
        </mxCell>
        <mxCell id="FgPwuLy-kUzGSYhEtQgn-42" value="prompt优化上线" style="rounded=1;whiteSpace=wrap;html=1;fillColor=#ede7f6;strokeColor=#7e57c2;fontSize=12;" vertex="1" parent="FgPwuLy-kUzGSYhEtQgn-39">
          <mxGeometry x="10" y="65" width="80" height="25" as="geometry" />
        </mxCell>
        <mxCell id="FgPwuLy-kUzGSYhEtQgn-43" value="openai集成" style="rounded=1;whiteSpace=wrap;html=1;fillColor=#ede7f6;strokeColor=#7e57c2;fontSize=12;" vertex="1" parent="FgPwuLy-kUzGSYhEtQgn-39">
          <mxGeometry x="100" y="65" width="80" height="25" as="geometry" />
        </mxCell>
        <mxCell id="FgPwuLy-kUzGSYhEtQgn-44" value="核心业务服务" style="rounded=1;whiteSpace=wrap;html=1;fillColor=#d1c4e9;strokeColor=#7e57c2;fontSize=14;fontStyle=1;" vertex="1" parent="FgPwuLy-kUzGSYhEtQgn-32">
          <mxGeometry x="260" y="60" width="280" height="120" as="geometry" />
        </mxCell>
        <mxCell id="FgPwuLy-kUzGSYhEtQgn-45" value="自然语言处理" style="rounded=1;whiteSpace=wrap;html=1;fillColor=#ede7f6;strokeColor=#7e57c2;fontSize=12;" vertex="1" parent="FgPwuLy-kUzGSYhEtQgn-44">
          <mxGeometry x="10" y="30" width="80" height="25" as="geometry" />
        </mxCell>
        <mxCell id="FgPwuLy-kUzGSYhEtQgn-46" value="计算机视觉" style="rounded=1;whiteSpace=wrap;html=1;fillColor=#ede7f6;strokeColor=#7e57c2;fontSize=12;" vertex="1" parent="FgPwuLy-kUzGSYhEtQgn-44">
          <mxGeometry x="100" y="30" width="80" height="25" as="geometry" />
        </mxCell>
        <mxCell id="FgPwuLy-kUzGSYhEtQgn-47" value="语音识别" style="rounded=1;whiteSpace=wrap;html=1;fillColor=#ede7f6;strokeColor=#7e57c2;fontSize=12;" vertex="1" parent="FgPwuLy-kUzGSYhEtQgn-44">
          <mxGeometry x="190" y="30" width="80" height="25" as="geometry" />
        </mxCell>
        <mxCell id="FgPwuLy-kUzGSYhEtQgn-48" value="推荐引擎" style="rounded=1;whiteSpace=wrap;html=1;fillColor=#ede7f6;strokeColor=#7e57c2;fontSize=12;" vertex="1" parent="FgPwuLy-kUzGSYhEtQgn-44">
          <mxGeometry x="10" y="65" width="80" height="25" as="geometry" />
        </mxCell>
        <mxCell id="FgPwuLy-kUzGSYhEtQgn-49" value="搜索引擎" style="rounded=1;whiteSpace=wrap;html=1;fillColor=#ede7f6;strokeColor=#7e57c2;fontSize=12;" vertex="1" parent="FgPwuLy-kUzGSYhEtQgn-44">
          <mxGeometry x="100" y="65" width="80" height="25" as="geometry" />
        </mxCell>
        <mxCell id="FgPwuLy-kUzGSYhEtQgn-50" value="内容生成" style="rounded=1;whiteSpace=wrap;html=1;fillColor=#ede7f6;strokeColor=#7e57c2;fontSize=12;" vertex="1" parent="FgPwuLy-kUzGSYhEtQgn-44">
          <mxGeometry x="190" y="65" width="80" height="25" as="geometry" />
        </mxCell>
        <mxCell id="FgPwuLy-kUzGSYhEtQgn-51" value="基建层 (Infrastructure Layer)" style="swimlane;whiteSpace=wrap;html=1;fillColor=#e3f2fd;strokeColor=#1976d2;fontSize=16;fontStyle=1;startSize=40;rounded=1;" vertex="1" parent="1">
          <mxGeometry x="40" y="660" width="1320" height="200" as="geometry" />
        </mxCell>
        <mxCell id="FgPwuLy-kUzGSYhEtQgn-52" value="中台服务" style="rounded=1;whiteSpace=wrap;html=1;fillColor=#bbdefb;strokeColor=#1976d2;fontSize=14;fontStyle=1;" vertex="1" parent="FgPwuLy-kUzGSYhEtQgn-51">
          <mxGeometry x="20" y="60" width="600" height="120" as="geometry" />
        </mxCell>
        <mxCell id="FgPwuLy-kUzGSYhEtQgn-53" value="用户管理" style="rounded=1;whiteSpace=wrap;html=1;fillColor=#e3f2fd;strokeColor=#1976d2;fontSize=12;" vertex="1" parent="FgPwuLy-kUzGSYhEtQgn-52">
          <mxGeometry x="20" y="30" width="80" height="30" as="geometry" />
        </mxCell>
        <mxCell id="FgPwuLy-kUzGSYhEtQgn-54" value="认证服务" style="rounded=1;whiteSpace=wrap;html=1;fillColor=#e3f2fd;strokeColor=#1976d2;fontSize=12;" vertex="1" parent="FgPwuLy-kUzGSYhEtQgn-52">
          <mxGeometry x="120" y="30" width="80" height="30" as="geometry" />
        </mxCell>
        <mxCell id="FgPwuLy-kUzGSYhEtQgn-55" value="配置中心" style="rounded=1;whiteSpace=wrap;html=1;fillColor=#e3f2fd;strokeColor=#1976d2;fontSize=12;" vertex="1" parent="FgPwuLy-kUzGSYhEtQgn-52">
          <mxGeometry x="220" y="30" width="80" height="30" as="geometry" />
        </mxCell>
        <mxCell id="FgPwuLy-kUzGSYhEtQgn-56" value="服务发现" style="rounded=1;whiteSpace=wrap;html=1;fillColor=#e3f2fd;strokeColor=#1976d2;fontSize=12;" vertex="1" parent="FgPwuLy-kUzGSYhEtQgn-52">
          <mxGeometry x="320" y="30" width="80" height="30" as="geometry" />
        </mxCell>
        <mxCell id="FgPwuLy-kUzGSYhEtQgn-57" value="消息队列" style="rounded=1;whiteSpace=wrap;html=1;fillColor=#e3f2fd;strokeColor=#1976d2;fontSize=12;" vertex="1" parent="FgPwuLy-kUzGSYhEtQgn-52">
          <mxGeometry x="420" y="30" width="80" height="30" as="geometry" />
        </mxCell>
        <mxCell id="FgPwuLy-kUzGSYhEtQgn-58" value="缓存服务" style="rounded=1;whiteSpace=wrap;html=1;fillColor=#e3f2fd;strokeColor=#1976d2;fontSize=12;" vertex="1" parent="FgPwuLy-kUzGSYhEtQgn-52">
          <mxGeometry x="520" y="30" width="80" height="30" as="geometry" />
        </mxCell>
        <mxCell id="FgPwuLy-kUzGSYhEtQgn-59" value="日志服务" style="rounded=1;whiteSpace=wrap;html=1;fillColor=#e3f2fd;strokeColor=#1976d2;fontSize=12;" vertex="1" parent="FgPwuLy-kUzGSYhEtQgn-52">
          <mxGeometry x="20" y="70" width="80" height="30" as="geometry" />
        </mxCell>
        <mxCell id="FgPwuLy-kUzGSYhEtQgn-60" value="监控服务" style="rounded=1;whiteSpace=wrap;html=1;fillColor=#e3f2fd;strokeColor=#1976d2;fontSize=12;" vertex="1" parent="FgPwuLy-kUzGSYhEtQgn-52">
          <mxGeometry x="120" y="70" width="80" height="30" as="geometry" />
        </mxCell>
        <mxCell id="FgPwuLy-kUzGSYhEtQgn-61" value="安全服务" style="rounded=1;whiteSpace=wrap;html=1;fillColor=#e3f2fd;strokeColor=#1976d2;fontSize=12;" vertex="1" parent="FgPwuLy-kUzGSYhEtQgn-52">
          <mxGeometry x="220" y="70" width="80" height="30" as="geometry" />
        </mxCell>
        <mxCell id="FgPwuLy-kUzGSYhEtQgn-62" value="文件服务" style="rounded=1;whiteSpace=wrap;html=1;fillColor=#e3f2fd;strokeColor=#1976d2;fontSize=12;" vertex="1" parent="FgPwuLy-kUzGSYhEtQgn-52">
          <mxGeometry x="320" y="70" width="80" height="30" as="geometry" />
        </mxCell>
        <mxCell id="FgPwuLy-kUzGSYhEtQgn-63" value="存储层" style="rounded=1;whiteSpace=wrap;html=1;fillColor=#bbdefb;strokeColor=#1976d2;fontSize=14;fontStyle=1;" vertex="1" parent="FgPwuLy-kUzGSYhEtQgn-51">
          <mxGeometry x="640" y="60" width="660" height="120" as="geometry" />
        </mxCell>
        <mxCell id="FgPwuLy-kUzGSYhEtQgn-64" value="MySQL" style="shape=cylinder3;whiteSpace=wrap;html=1;boundedLbl=1;backgroundOutline=1;size=15;fillColor=#e3f2fd;strokeColor=#1976d2;fontSize=12;" vertex="1" parent="FgPwuLy-kUzGSYhEtQgn-63">
          <mxGeometry x="20" y="30" width="60" height="60" as="geometry" />
        </mxCell>
        <mxCell id="FgPwuLy-kUzGSYhEtQgn-65" value="Redis" style="shape=cylinder3;whiteSpace=wrap;html=1;boundedLbl=1;backgroundOutline=1;size=15;fillColor=#e3f2fd;strokeColor=#1976d2;fontSize=12;" vertex="1" parent="FgPwuLy-kUzGSYhEtQgn-63">
          <mxGeometry x="100" y="30" width="60" height="60" as="geometry" />
        </mxCell>
        <mxCell id="FgPwuLy-kUzGSYhEtQgn-66" value="Elasticsearch" style="shape=cylinder3;whiteSpace=wrap;html=1;boundedLbl=1;backgroundOutline=1;size=15;fillColor=#e3f2fd;strokeColor=#1976d2;fontSize=12;" vertex="1" parent="FgPwuLy-kUzGSYhEtQgn-63">
          <mxGeometry x="180" y="30" width="60" height="60" as="geometry" />
        </mxCell>
        <mxCell id="FgPwuLy-kUzGSYhEtQgn-67" value="向量数据库" style="shape=cylinder3;whiteSpace=wrap;html=1;boundedLbl=1;backgroundOutline=1;size=15;fillColor=#e3f2fd;strokeColor=#1976d2;fontSize=12;" vertex="1" parent="FgPwuLy-kUzGSYhEtQgn-63">
          <mxGeometry x="260" y="30" width="60" height="60" as="geometry" />
        </mxCell>
        <mxCell id="FgPwuLy-kUzGSYhEtQgn-68" value="MinIO" style="shape=cylinder3;whiteSpace=wrap;html=1;boundedLbl=1;backgroundOutline=1;size=15;fillColor=#e3f2fd;strokeColor=#1976d2;fontSize=12;" vertex="1" parent="FgPwuLy-kUzGSYhEtQgn-63">
          <mxGeometry x="340" y="30" width="60" height="60" as="geometry" />
        </mxCell>
        <mxCell id="FgPwuLy-kUzGSYhEtQgn-69" value="MongoDB" style="shape=cylinder3;whiteSpace=wrap;html=1;boundedLbl=1;backgroundOutline=1;size=15;fillColor=#e3f2fd;strokeColor=#1976d2;fontSize=12;" vertex="1" parent="FgPwuLy-kUzGSYhEtQgn-63">
          <mxGeometry x="420" y="30" width="60" height="60" as="geometry" />
        </mxCell>
        <mxCell id="FgPwuLy-kUzGSYhEtQgn-70" value="Kafka" style="shape=cylinder3;whiteSpace=wrap;html=1;boundedLbl=1;backgroundOutline=1;size=15;fillColor=#e3f2fd;strokeColor=#1976d2;fontSize=12;" vertex="1" parent="FgPwuLy-kUzGSYhEtQgn-63">
          <mxGeometry x="500" y="30" width="60" height="60" as="geometry" />
        </mxCell>
        <mxCell id="FgPwuLy-kUzGSYhEtQgn-71" value="HDFS" style="shape=cylinder3;whiteSpace=wrap;html=1;boundedLbl=1;backgroundOutline=1;size=15;fillColor=#e3f2fd;strokeColor=#1976d2;fontSize=12;" vertex="1" parent="FgPwuLy-kUzGSYhEtQgn-63">
          <mxGeometry x="580" y="30" width="60" height="60" as="geometry" />
        </mxCell>
        <mxCell id="FgPwuLy-kUzGSYhEtQgn-72" value="" style="endArrow=classic;html=1;rounded=0;exitX=0.5;exitY=1;exitDx=0;exitDy=0;entryX=0.5;entryY=0;entryDx=0;entryDy=0;strokeColor=#666666;" edge="1" parent="1" source="FgPwuLy-kUzGSYhEtQgn-1" target="FgPwuLy-kUzGSYhEtQgn-6">
          <mxGeometry width="50" height="50" relative="1" as="geometry">
            <mxPoint x="700" y="300" as="sourcePoint" />
            <mxPoint x="750" y="250" as="targetPoint" />
          </mxGeometry>
        </mxCell>
        <mxCell id="FgPwuLy-kUzGSYhEtQgn-73" value="" style="endArrow=classic;html=1;rounded=0;exitX=0.5;exitY=1;exitDx=0;exitDy=0;entryX=0.5;entryY=0;entryDx=0;entryDy=0;strokeColor=#666666;" edge="1" parent="1" source="FgPwuLy-kUzGSYhEtQgn-6" target="FgPwuLy-kUzGSYhEtQgn-32">
          <mxGeometry width="50" height="50" relative="1" as="geometry">
            <mxPoint x="700" y="420" as="sourcePoint" />
            <mxPoint x="750" y="370" as="targetPoint" />
          </mxGeometry>
        </mxCell>
        <mxCell id="FgPwuLy-kUzGSYhEtQgn-74" value="" style="endArrow=classic;html=1;rounded=0;exitX=0.5;exitY=1;exitDx=0;exitDy=0;entryX=0.5;entryY=0;entryDx=0;entryDy=0;strokeColor=#666666;" edge="1" parent="1" source="FgPwuLy-kUzGSYhEtQgn-32" target="FgPwuLy-kUzGSYhEtQgn-51">
          <mxGeometry width="50" height="50" relative="1" as="geometry">
            <mxPoint x="700" y="680" as="sourcePoint" />
            <mxPoint x="750" y="630" as="targetPoint" />
          </mxGeometry>
        </mxCell>
        <mxCell id="FgPwuLy-kUzGSYhEtQgn-75" value="" style="endArrow=classic;html=1;rounded=0;exitX=0;exitY=0.5;exitDx=0;exitDy=0;entryX=1;entryY=0.5;entryDx=0;entryDy=0;strokeColor=#9c27b0;strokeWidth=2;" edge="1" parent="1" source="FgPwuLy-kUzGSYhEtQgn-33" target="FgPwuLy-kUzGSYhEtQgn-34">
          <mxGeometry width="50" height="50" relative="1" as="geometry">
            <mxPoint x="560" y="520" as="sourcePoint" />
            <mxPoint x="240" y="520" as="targetPoint" />
          </mxGeometry>
        </mxCell>
        <mxCell id="FgPwuLy-kUzGSYhEtQgn-76" value="" style="endArrow=classic;html=1;rounded=0;exitX=1;exitY=0.5;exitDx=0;exitDy=0;entryX=0;entryY=0.5;entryDx=0;entryDy=0;strokeColor=#9c27b0;strokeWidth=2;" edge="1" parent="1" source="FgPwuLy-kUzGSYhEtQgn-33" target="FgPwuLy-kUzGSYhEtQgn-39">
          <mxGeometry width="50" height="50" relative="1" as="geometry">
            <mxPoint x="760" y="520" as="sourcePoint" />
            <mxPoint x="1100" y="520" as="targetPoint" />
          </mxGeometry>
        </mxCell>
        <mxCell id="FgPwuLy-kUzGSYhEtQgn-77" value="" style="endArrow=classic;html=1;rounded=0;exitX=0;exitY=0.5;exitDx=0;exitDy=0;entryX=1;entryY=0.5;entryDx=0;entryDy=0;strokeColor=#9c27b0;strokeWidth=2;" edge="1" parent="1" source="FgPwuLy-kUzGSYhEtQgn-33" target="FgPwuLy-kUzGSYhEtQgn-44">
          <mxGeometry width="50" height="50" relative="1" as="geometry">
            <mxPoint x="580" y="520" as="sourcePoint" />
            <mxPoint x="540" y="520" as="targetPoint" />
          </mxGeometry>
        </mxCell>
        <mxCell id="FgPwuLy-kUzGSYhEtQgn-80" value="" style="edgeStyle=orthogonalEdgeStyle;rounded=0;orthogonalLoop=1;jettySize=auto;html=1;" edge="1" parent="1" source="FgPwuLy-kUzGSYhEtQgn-78" target="FgPwuLy-kUzGSYhEtQgn-79">
          <mxGeometry relative="1" as="geometry" />
        </mxCell>
        <mxCell id="FgPwuLy-kUzGSYhEtQgn-78" value="" style="rounded=0;whiteSpace=wrap;html=1;" vertex="1" parent="1">
          <mxGeometry x="240" y="-80" width="170" height="60" as="geometry" />
        </mxCell>
        <mxCell id="FgPwuLy-kUzGSYhEtQgn-82" value="" style="edgeStyle=orthogonalEdgeStyle;rounded=0;orthogonalLoop=1;jettySize=auto;html=1;" edge="1" parent="1" source="FgPwuLy-kUzGSYhEtQgn-79" target="FgPwuLy-kUzGSYhEtQgn-81">
          <mxGeometry relative="1" as="geometry" />
        </mxCell>
        <mxCell id="FgPwuLy-kUzGSYhEtQgn-79" value="" style="ellipse;whiteSpace=wrap;html=1;rounded=0;" vertex="1" parent="1">
          <mxGeometry x="450" y="-160" width="80" height="80" as="geometry" />
        </mxCell>
        <mxCell id="FgPwuLy-kUzGSYhEtQgn-81" value="" style="ellipse;whiteSpace=wrap;html=1;rounded=0;" vertex="1" parent="1">
          <mxGeometry x="610" y="-160" width="80" height="80" as="geometry" />
        </mxCell>
        <mxCell id="FgPwuLy-kUzGSYhEtQgn-83" value="" style="html=1;shadow=0;dashed=0;align=center;verticalAlign=middle;shape=mxgraph.arrows2.arrow;dy=0.6;dx=40;direction=south;notch=0;" vertex="1" parent="1">
          <mxGeometry x="680" y="200" width="70" height="100" as="geometry" />
        </mxCell>
        <mxCell id="FgPwuLy-kUzGSYhEtQgn-84" value="" style="html=1;shadow=0;dashed=0;align=center;verticalAlign=middle;shape=mxgraph.arrows2.arrow;dy=0.6;dx=40;direction=south;notch=0;" vertex="1" parent="1">
          <mxGeometry x="125" y="-100" width="70" height="100" as="geometry" />
        </mxCell>
      </root>
    </mxGraphModel>
  </diagram>
</mxfile>
